<?xml version="1.0" encoding="UTF-8"?>
<svg width="6px" height="10px" viewBox="0 0 6 10" version="1.1" xmlns="http://www.w3.org/2000/svg" xmlns:xlink="http://www.w3.org/1999/xlink">
    <!-- Generator: Sketch 47.1 (45422) - http://www.bohemiancoding.com/sketch -->
    <title>Chevron</title>
    <desc>Created with Sketch.</desc>
    <defs></defs>
    <g id="Symbols" stroke="none" stroke-width="1" fill="none" fill-rule="evenodd">
        <g id="UI-/-Button-Primary" transform="translate(-195.000000, -17.000000)" fill="#FFFFFF">
            <g id="Group" transform="translate(90.000000, 14.000000)">
                <path d="M111,8 C111,7.91983968 110.958763,7.82965932 110.896907,7.76953908 L106.092784,3.1002004 C106.030928,3.04008016 105.938144,3 105.85567,3 C105.773196,3 105.680412,3.04008016 105.618557,3.1002004 L105.103093,3.6012024 C105.041237,3.66132265 105,3.75150301 105,3.83166333 C105,3.91182365 105.041237,4.00200401 105.103093,4.06212425 L109.154639,8 L105.103093,11.9378758 C105.041237,11.997996 105,12.0881764 105,12.1683367 C105,12.258517 105.041237,12.3386774 105.103093,12.3987976 L105.618557,12.8997996 C105.680412,12.9599198 105.773196,13 105.85567,13 C105.938144,13 106.030928,12.9599198 106.092784,12.8997996 L110.896907,8.23046092 C110.958763,8.17034068 111,8.08016032 111,8 Z" id="Chevron"></path>
            </g>
        </g>
    </g>
</svg>