<?xml version="1.0" encoding="UTF-8"?>
<svg width="6px" height="10px" viewBox="0 0 6 10" version="1.1" xmlns="http://www.w3.org/2000/svg" xmlns:xlink="http://www.w3.org/1999/xlink">
    <!-- Generator: Sketch 47.1 (45422) - http://www.bohemiancoding.com/sketch -->
    <title>Chevron</title>
    <desc>Created with Sketch.</desc>
    <defs></defs>
    <g id="Symbols" stroke="none" stroke-width="1" fill="none" fill-rule="evenodd">
        <g id="UI-/-Button-Secondary-(Cart)" transform="translate(-220.000000, -18.000000)" fill="#2B7E93">
            <g id="Group" transform="translate(64.000000, 14.000000)">
                <path d="M162,9 C162,8.91983968 161.958763,8.82965932 161.896907,8.76953908 L157.092784,4.1002004 C157.030928,4.04008016 156.938144,4 156.85567,4 C156.773196,4 156.680412,4.04008016 156.618557,4.1002004 L156.103093,4.6012024 C156.041237,4.66132265 156,4.75150301 156,4.83166333 C156,4.91182365 156.041237,5.00200401 156.103093,5.06212425 L160.154639,9 L156.103093,12.9378758 C156.041237,12.997996 156,13.0881764 156,13.1683367 C156,13.258517 156.041237,13.3386774 156.103093,13.3987976 L156.618557,13.8997996 C156.680412,13.9599198 156.773196,14 156.85567,14 C156.938144,14 157.030928,13.9599198 157.092784,13.8997996 L161.896907,9.23046092 C161.958763,9.17034068 162,9.08016032 162,9 Z" id="Chevron"></path>
            </g>
        </g>
    </g>
</svg>