<?xml version="1.0" encoding="UTF-8"?>
<svg width="6px" height="10px" viewBox="0 0 6 10" version="1.1" xmlns="http://www.w3.org/2000/svg" xmlns:xlink="http://www.w3.org/1999/xlink">
    <!-- Generator: Sketch 47.1 (45422) - http://www.bohemiancoding.com/sketch -->
    <title>Chevron</title>
    <desc>Created with Sketch.</desc>
    <defs></defs>
    <g id="Symbols" stroke="none" stroke-width="1" fill="none" fill-rule="evenodd">
        <g id="UI-/-Button-Primary" transform="translate(-195.000000, -17.000000)" fill="#FFFFFF">
            <g id="Group" transform="translate(89.000000, 14.000000)">
                <path d="M112,8 C112,7.91983968 111.958763,7.82965932 111.896907,7.76953908 L107.092784,3.1002004 C107.030928,3.04008016 106.938144,3 106.85567,3 C106.773196,3 106.680412,3.04008016 106.618557,3.1002004 L106.103093,3.6012024 C106.041237,3.66132265 106,3.75150301 106,3.83166333 C106,3.91182365 106.041237,4.00200401 106.103093,4.06212425 L110.154639,8 L106.103093,11.9378758 C106.041237,11.997996 106,12.0881764 106,12.1683367 C106,12.258517 106.041237,12.3386774 106.103093,12.3987976 L106.618557,12.8997996 C106.680412,12.9599198 106.773196,13 106.85567,13 C106.938144,13 107.030928,12.9599198 107.092784,12.8997996 L111.896907,8.23046092 C111.958763,8.17034068 112,8.08016032 112,8 Z" id="Chevron"></path>
            </g>
        </g>
    </g>
</svg>